<?xml version="1.0" encoding="UTF-8" standalone="no"?>
<!DOCTYPE svg PUBLIC "-//W3C//DTD SVG 1.1//EN" "http://www.w3.org/Graphics/SVG/1.1/DTD/svg11.dtd">
<svg width="100%" height="100%" viewBox="0 0 42 42" version="1.1" xmlns="http://www.w3.org/2000/svg" xmlns:xlink="http://www.w3.org/1999/xlink" xml:space="preserve" xmlns:serif="http://www.serif.com/" style="fill-rule:evenodd;clip-rule:evenodd;stroke-linejoin:round;stroke-miterlimit:1.41421;">
    <g transform="matrix(1,0,0,1,-2844.01,-391.06)">
        <g transform="matrix(1,0,0,1,1579.51,-206.595)">
            <g id="reading" transform="matrix(0.0820312,0,0,0.0820312,1285.5,618.655)">
                <g transform="matrix(1,0,0,1,-256,-256)">
                    <path d="M494.961,77.21C487.782,77.21 481.044,77.281 474.296,77.455L474.296,54.538L466.78,54.538C320.737,54.538 271.78,89.467 255.99,108.319C240.2,89.467 191.242,54.538 45.199,54.538L37.683,54.538L37.683,77.445C30.945,77.261 24.207,77.21 17.039,77.21L0,77.21L0,408.474L17.039,408.474C197.212,408.474 233.984,449.792 239.227,457.462L273.039,457.462C278.743,449.434 316.232,408.474 494.971,408.474L512,408.474L512,77.21L494.961,77.21ZM244.726,393.533C219.566,374.979 166.789,353.454 56.484,352.02L56.484,73.472C210.975,75.459 240.814,117.78 244.726,124.672L244.726,393.533ZM455.516,352.02C345.211,353.454 292.434,374.958 267.274,393.533L267.274,124.764C271.534,117.217 302.213,75.469 455.516,73.492L455.516,352.02Z" style="fill:white;fill-rule:nonzero;"/>
                </g>
            </g>
        </g>
    </g>
</svg>
